<?xml version="1.0" encoding="utf-8"?>
<!-- Generator: Adobe Illustrator 23.0.5, SVG Export Plug-In . SVG Version: 6.00 Build 0)  -->
<svg version="1.1" id="Layer_1" xmlns="http://www.w3.org/2000/svg" xmlns:xlink="http://www.w3.org/1999/xlink" x="0px" y="0px"
	 width="230px" height="35px" viewBox="0 0 230 35" style="enable-background:new 0 0 230 35;" xml:space="preserve">
<style type="text/css">
	.st0{fill:#ffffff;}
	.st1{fill:#E99300;}
</style>
<g>
	<g>
		<path class="st0" d="M1.8,24.8c0.1,0.3,0.2,0.5,0.4,0.8l0,0c0.5,0.9,1.2,1.7,2,2.4c0.1,0,0.1,0.1,0.2,0.1c0,0,0,0,0.1,0.1l0,0
			c0.2,0.2,0.7,0.6,1.4,1.1c1.7,1.2,4.6,2.8,8,3.2c0.6,0.1,1.3,0.1,2,0.1l0,0c0.1,0,0.2,0,0.3,0c0,0,0,0,0.1,0l0,0h0.1
			c0,0,0,0,0.1,0s0.2,0,0.3,0c0.1,0,0.1,0,0.2,0s0.1,0,0.2,0s0.1,0,0.2,0s0.2,0,0.3,0c0,0,0.1,0,0.2,0c0.4-0.1,0.8-0.3,1.2-0.5
			c-0.2,0.1-0.9-0.2-1.1-0.2c-0.3,0-0.5-0.1-0.8-0.1c-0.1,0-0.2,0-0.2,0c-0.7-0.1-1.5-0.2-2.2-0.3c-1.4-0.3-2.9-0.7-4.2-1.3
			c-2.8-1.2-5.3-3.5-6.2-6.7c-0.3-1.2-0.6-2.8-0.1-4c0.5-1.3,1.9-2.2,3.3-2.1c0.7,0.1,1.5,0.3,2.2,0.5c0.1,0,0.4,0.1,0.5,0.1
			s0.1,0,0.2-0.1c0.1-0.1,0.1-0.2,0.1-0.3l0,0c0,0,0-0.3,0-0.6l0,0c0.1-1,0.6-2.9,3.2-4.2c0.7-0.3,1.4-0.4,2.1-0.2
			c1.1,0.3,1.9,1.2,2.5,2.3c0.8,1.5,1.2,3.1,1.3,4.9c0.1,1.7,0,3.4-0.2,5.1c-0.1,0.6-0.1,1.2-0.1,1.7c0,0.1,0.3,1.7,0.3,1.7
			c0.2-0.1,0.3-0.4,0.4-0.7c0.6-2,1-4.1,1.1-6.2c0.2-2.2,0.1-4.5-0.4-6.6c-0.2-0.7-0.4-1.3-0.8-1.9c-1-1.7-2.5-3-4.4-3.1
			c-0.5,0-1,0-1.6,0.1c-0.2,0.1-0.5,0.1-0.7,0.2c0.3-0.1,0.5-0.1,0.5-0.1c-0.7,0.2-1.3,0.4-1.9,0.9c0,0,0,0-0.1,0L11.7,11
			c0,0,0,0-0.1,0.1l-0.1,0.1c-1.2,1.2-1.7,2.9-2.2,4.5v0.1c0,0,0,0-0.1,0c-0.5-0.1-1-0.3-1.6-0.4c-0.3-0.1-0.7-0.1-1-0.1
			c-0.8,0-1.5,0.1-2.3,0.4c-0.1,0-2.7,1-3.1,4.8C1,20.5,0.7,22.6,1.8,24.8z M9.8,31.1c0.1,0,0.1,0,0.2,0.1L9.8,31.1L9.8,31.1z"/>
	</g>
	<g>
		<path class="st1" d="M35.2,12.5c-1.9-4.2-5.5-4.3-5.5-4.3c-1-0.1-2,0.1-2.9,0.4c-0.4,0.2-0.8,0.3-1.2,0.6
			c-0.6,0.3-1.2,0.7-1.8,1.1h-0.1c0,0-0.1,0-0.1-0.1c-1.2-1.7-2.4-3.5-4.3-4.4c-0.1,0-0.2-0.1-0.2-0.1H19c-0.1,0-0.1,0-0.2-0.1h-0.1
			c-0.8-0.3-1.7-0.3-2.6-0.2c0,0,0.3,0,0.7-0.1c-0.3,0-0.6,0-0.9,0c-0.8,0.1-1.5,0.3-2.1,0.5c-2.3,1-3.8,3.1-4.4,5.5
			C9.1,12.2,9,13.1,9,13.9c0.1,2.7,0.9,5.3,1.8,7.8c0.9,2.4,2.1,4.7,3.5,6.8c0.2,0.3,0.4,0.6,0.7,0.6c0.1,0-0.1-1.9-0.2-2.1
			c-0.2-0.7-0.5-1.3-0.8-2c-0.8-1.9-1.6-3.9-2.1-5.9c-0.4-2-0.6-4.2-0.1-6.2c0.4-1.4,1.1-2.9,2.3-3.7c0.8-0.5,1.8-0.7,2.7-0.7
			c3.6,0.5,4.9,2.5,5.4,3.6l0,0c0.2,0.4,0.2,0.6,0.2,0.7l0,0c0.1,0.1,0.1,0.2,0.2,0.3c0.1,0,0.1,0.1,0.2,0c0.2,0,0.4-0.2,0.6-0.3
			c0.8-0.5,1.7-1.1,2.5-1.4c1.6-0.7,3.6-0.2,4.8,1.1c1,1.2,1.3,3.2,1.3,4.7c0,4.1-2.3,7.8-5.3,10.4c-1.5,1.3-3.1,2.3-4.8,3.2
			c-0.8,0.5-1.7,0.9-2.6,1.3c-0.1,0-0.2,0.1-0.3,0.1c-0.3,0.2-0.6,0.3-1,0.5c-0.2,0.1-1,0.7-1.3,0.7c0.6,0.2,1.1,0.2,1.7,0.1
			c0.1,0,0.1,0,0.2,0c0.2,0,0.3-0.1,0.4-0.1s0.2,0,0.2-0.1c0.1,0,0.1,0,0.2-0.1c0.1,0,0.1,0,0.2-0.1c0.1,0,0.3-0.1,0.4-0.1
			c0,0,0,0,0.1,0c0,0,0.1,0,0.1-0.1l0,0h0.1c0.1-0.1,0.2-0.1,0.4-0.2l0,0c0.8-0.2,1.6-0.5,2.4-0.9c4.2-1.9,7.2-5.1,8.8-7.1
			c0.7-0.8,1.1-1.5,1.3-1.8c0,0,0,0,0-0.1s0.1-0.1,0.1-0.1c0.1-0.1,0.1-0.2,0.1-0.2c0.7-1.1,1.2-2.4,1.6-3.6l0,0
			c0.1-0.4,0.2-0.7,0.2-1.1C36.3,14.9,35.2,12.5,35.2,12.5z M28,28.6L28,28.6L28,28.6L28,28.6z"/>
	</g>
</g>
<g>
	<path class="st0" d="M42,31.9V11.5l3.4-0.6v3.4c0.6-1.3,1.3-2.2,2.1-2.7c0.4-0.3,1-0.5,1.7-0.7s1.4-0.3,2-0.3
		c2.8,0,4.7,1.2,5.6,3.6c0.2-0.3,0.3-0.5,0.4-0.7c0.1-0.1,0.2-0.3,0.4-0.5c0.6-0.7,1.1-1.2,1.6-1.5c1.1-0.6,2.5-0.9,4-0.9
		c1.9,0,3.4,0.6,4.5,1.8s1.7,2.8,1.7,4.9v2.4v0.7v10.8L66,31.8V20v-0.6c0-1.8-0.1-3-0.4-3.6s-0.7-1.1-1.3-1.5
		c-0.6-0.4-1.3-0.6-2.1-0.6c-1.5,0-2.7,0.6-3.6,1.7c-0.9,1.1-1.3,2.7-1.3,4.6v0.6v10.7L54,31.9V20v-0.6v-1.6v-0.2
		c0-1.2-0.3-2.1-1-2.8s-1.6-1-2.7-1c-1.3,0-2.5,0.6-3.4,1.8s-1.4,2.7-1.4,4.5v0.6v10.9L42,31.9z"/>
	<path class="st0" d="M93.5,15.9l-15.8,9.6c1.6,2.4,3.6,3.6,6.2,3.6c2.4,0,4.6-1.1,6.7-3.4l2.6,1.9c-0.4,0.4-0.7,0.8-1,1.1
		c-0.3,0.3-0.6,0.6-0.8,0.8c-2.1,1.8-4.6,2.7-7.4,2.7c-3.1,0-5.7-1-7.7-3c-2.1-2-3.1-4.6-3.1-7.6c0-3.1,1-5.7,3.1-7.7s4.7-3,7.8-3
		c1.9,0,3.7,0.4,5.2,1.2C90.8,12.8,92.2,14.1,93.5,15.9z M76.7,22.7l11.8-7.4c-0.7-0.6-1.5-1-2.2-1.3s-1.5-0.4-2.4-0.4
		c-2,0-3.8,0.7-5.2,2.2c-1.4,1.5-2.2,3.2-2.2,5.3C76.6,21.6,76.6,22.1,76.7,22.7z"/>
	<path class="st0" d="M96.6,31.6V3.1h5.6c1.6,0,2.7,0,3.4,0.1c0.7,0.1,1.5,0.3,2.3,0.6c1.6,0.6,2.9,1.7,3.8,3.1s1.4,3.1,1.4,4.9
		c0,2.3-0.6,4.2-1.8,5.7c-1.2,1.4-2.8,2.3-5,2.6l8.2,10.1l-3.1,2.1l-11-14v13.3C100.4,31.6,96.6,31.6,96.6,31.6z M100.4,6.5v11.4
		h2.4c2,0,3.6-0.5,4.7-1.5s1.7-2.4,1.7-4.2c0-1.3-0.3-2.4-1-3.4s-1.6-1.6-2.7-1.9c-0.5-0.1-0.9-0.2-1.3-0.3
		c-0.4-0.1-0.9-0.1-1.5-0.1C102.7,6.5,100.4,6.5,100.4,6.5z"/>
	<path class="st0" d="M136.4,15.9l-15.8,9.6c1.6,2.4,3.6,3.6,6.2,3.6c2.4,0,4.6-1.1,6.7-3.4l2.6,1.9c-0.4,0.4-0.7,0.8-1,1.1
		c-0.3,0.3-0.6,0.6-0.8,0.8c-2.1,1.8-4.6,2.7-7.4,2.7c-3.1,0-5.7-1-7.7-3c-2.1-2-3.1-4.6-3.1-7.6c0-3.1,1-5.7,3.1-7.7s4.7-3,7.8-3
		c1.9,0,3.7,0.4,5.2,1.2C133.8,12.8,135.2,14.1,136.4,15.9z M119.7,22.7l11.8-7.4c-0.7-0.6-1.5-1-2.2-1.3s-1.5-0.4-2.4-0.4
		c-2,0-3.8,0.7-5.2,2.2c-1.4,1.5-2.2,3.2-2.2,5.3C119.5,21.6,119.5,22.1,119.7,22.7z"/>
	<path class="st0" d="M139.5,31.9V3.2l3.4-0.6v28.6L139.5,31.9z"/>
	<path class="st0" d="M160.8,19.7V18c0-1-0.1-1.8-0.4-2.4c-0.8-1.4-2.4-2.2-5-2.2c-1.1,0-2.1,0.1-2.9,0.2c-0.8,0.2-1.7,0.4-2.7,0.9
		l-1-2.9c0.5-0.2,0.8-0.3,1-0.3c0.4-0.1,0.7-0.2,1-0.3c0.2-0.1,0.8-0.1,1.6-0.3c0.9-0.1,1.8-0.2,2.8-0.2c3.1,0,5.3,0.6,6.8,1.7
		c1.4,1.1,2.1,2.9,2.1,5.3V19v12.1l-3.4,0.6V29c-1.6,1.9-3.6,2.9-6,2.9c-2.3,0-4.2-0.7-5.7-2.1s-2.3-3.2-2.3-5.4
		c0-2.1,0.7-3.9,2.2-5.3c1.5-1.4,3.4-2.1,5.7-2.1c1.2,0,2.4,0.2,3.4,0.7C159.2,18.3,160.1,18.9,160.8,19.7z M155.3,20
		c-1.5,0-2.8,0.4-3.8,1.3s-1.5,2-1.5,3.4s0.5,2.5,1.5,3.4s2.3,1.3,3.9,1.3c1.6,0,2.9-0.4,3.9-1.3s1.5-2,1.5-3.4s-0.5-2.5-1.5-3.4
		C158.3,20.4,156.9,20,155.3,20z"/>
	<path class="st0" d="M166.2,14.1l0.6-2.9h2.1V6.5l3.4-0.6v5.3h5.7l-0.6,2.9h-5.1v9.6c0,1,0,1.8,0.1,2.4c0.2,0.9,0.6,1.6,1.2,2.1
		c0.6,0.5,1.4,0.8,2.3,0.8c0.6,0,1.1-0.1,1.7-0.4l0.4,3.1c-0.6,0.1-1.2,0.1-1.7,0.2c-0.5,0.1-1,0.1-1.3,0.1c-1.8,0-3.3-0.5-4.3-1.5
		c-0.7-0.7-1.2-1.5-1.4-2.4c-0.3-0.9-0.4-2.1-0.4-3.7v-0.7v-9.6C168.9,14.1,166.2,14.1,166.2,14.1z"/>
	<path class="st0" d="M178.7,4.9l2.4-2.8l2.5,2.8l-2.5,2.8L178.7,4.9z M179.5,31.9V11.5l3.4-0.6v20.3L179.5,31.9z"/>
	<path class="st0" d="M186.8,21.5c0-3.1,1-5.6,3.1-7.7s4.6-3.1,7.7-3.1c3.1,0,5.7,1,7.7,3.1c2.1,2,3.1,4.6,3.1,7.6s-1,5.6-3.1,7.6
		s-4.6,3.1-7.7,3.1s-5.7-1-7.7-3.1C187.8,27,186.8,24.5,186.8,21.5z M197.6,13.8c-2.1,0-3.9,0.7-5.3,2.2c-1.4,1.5-2.1,3.3-2.1,5.5
		s0.7,4,2.1,5.4c1.4,1.5,3.2,2.2,5.3,2.2s3.8-0.7,5.3-2.2c1.4-1.5,2.2-3.3,2.2-5.4s-0.7-3.9-2.2-5.4
		C201.4,14.5,199.7,13.8,197.6,13.8z"/>
	<path class="st0" d="M212.2,31.9V11.5l3.4-0.6v3.2c0.4-0.5,0.7-0.9,0.9-1.2c1.3-1.5,3.2-2.3,5.5-2.3c1.8,0,3.3,0.5,4.5,1.5
		s1.8,2.4,2,4.1c0.1,0.7,0.2,1.9,0.2,3.4v11.6l-3.4,0.6V19.7V19v-1c0-0.5,0-1-0.1-1.6c-0.2-0.8-0.6-1.5-1.3-2s-1.6-0.7-2.7-0.7
		c-1.5,0-2.8,0.5-3.9,1.6c-1.1,1.1-1.6,2.4-1.6,4v1.1v10.8L212.2,31.9z"/>
</g>
</svg>
